<svg version="1.1" id="Layer_1" xmlns="http://www.w3.org/2000/svg" xmlns:xlink="http://www.w3.org/1999/xlink" x="0px" y="0px"
	 width="100%" viewBox="0 0 790 790" enable-background="new 0 0 790 790" xml:space="preserve">
<path fill="#2F2E2C" opacity="1.000000" stroke="none" 
	d="
M422.000000,791.000000 
	C281.333344,791.000000 141.166672,791.000000 1.000000,791.000000 
	C1.000000,527.666687 1.000000,264.333344 1.000000,1.000000 
	C264.333344,1.000000 527.666687,1.000000 791.000000,1.000000 
	C791.000000,264.333344 791.000000,527.666687 791.000000,791.000000 
	C668.166687,791.000000 545.333313,791.000000 422.000000,791.000000 
M299.699280,346.203918 
	C291.083893,354.544983 282.444580,362.861511 273.857361,371.231476 
	C240.579865,403.667053 207.318176,436.118805 174.052826,468.566895 
	C168.878403,473.614166 163.716003,478.673798 157.445267,484.806183 
	C161.038406,484.995056 162.947495,485.182495 164.856644,485.183044 
	C208.348572,485.194946 251.840744,485.120819 295.332062,485.281738 
	C299.742371,485.298035 302.775604,483.836548 305.810547,480.856903 
	C332.670532,454.486450 359.693695,428.282074 386.518097,401.875702 
	C389.810822,398.634308 391.795776,398.223145 395.322083,401.699280 
	C422.010773,428.007965 448.913757,454.099121 475.720245,480.288513 
	C478.472137,482.977020 480.930878,485.314728 485.436981,485.295593 
	C529.594666,485.107819 573.753479,485.189941 617.911926,485.169678 
	C619.607117,485.168884 621.302124,484.907959 623.919861,484.692230 
	C622.284607,482.903748 621.458069,481.905121 620.535400,481.004852 
	C608.376221,469.140442 596.192932,457.300812 584.036011,445.434174 
	C521.343323,384.238464 458.655640,323.037689 395.969543,261.835297 
	C390.989655,256.973236 391.012146,256.972107 385.967621,261.899567 
	C357.373718,289.829956 328.774170,317.754608 299.699280,346.203918 
z"/>
<path fill="#02C1FD" opacity="1.000000" stroke="none" 
	d="
M299.937927,345.942566 
	C328.774170,317.754608 357.373718,289.829956 385.967621,261.899567 
	C391.012146,256.972107 390.989655,256.973236 395.969543,261.835297 
	C458.655640,323.037689 521.343323,384.238464 584.036011,445.434174 
	C596.192932,457.300812 608.376221,469.140442 620.535400,481.004852 
	C621.458069,481.905121 622.284607,482.903748 623.919861,484.692230 
	C621.302124,484.907959 619.607117,485.168884 617.911926,485.169678 
	C573.753479,485.189941 529.594666,485.107819 485.436981,485.295593 
	C480.930878,485.314728 478.472137,482.977020 475.720245,480.288513 
	C448.913757,454.099121 422.010773,428.007965 395.322083,401.699280 
	C391.795776,398.223145 389.810822,398.634308 386.518097,401.875702 
	C359.693695,428.282074 332.670532,454.486450 305.810547,480.856903 
	C302.775604,483.836548 299.742371,485.298035 295.332062,485.281738 
	C251.840744,485.120819 208.348572,485.194946 164.856644,485.183044 
	C162.947495,485.182495 161.038406,484.995056 157.445267,484.806183 
	C163.716003,478.673798 168.878403,473.614166 174.052826,468.566895 
	C207.318176,436.118805 240.579865,403.667053 273.857361,371.231476 
	C282.444580,362.861511 291.083893,354.544983 299.937927,345.942566 
z"/>
</svg>